<svg width="512" height="512" xmlns="http://www.w3.org/2000/svg">

 <g>
  <title>background</title>
  <rect fill="none" id="canvas_background" height="402" width="582" y="-1" x="-1"/>
 </g>
 <g>
  <title>Layer 1</title>
  <circle id="svg_1" fill="#ffffff" r="255.445" cy="256" cx="255.722"/>
  <path id="svg_2" fill="#e5e5e5" d="m255.722,0.555c-1.944,0 -3.878,0.03 -5.812,0.073c-0.492,0.011 -0.983,0.022 -1.474,0.037c-1.843,0.051 -3.682,0.119 -5.514,0.209c-0.474,0.023 -0.945,0.056 -1.418,0.081c-1.394,0.077 -2.785,0.165 -4.174,0.264c-0.699,0.05 -1.397,0.098 -2.094,0.153c-1.61,0.128 -3.217,0.27 -4.82,0.428c-0.829,0.082 -1.654,0.173 -2.479,0.262c-0.991,0.108 -1.98,0.221 -2.968,0.34c-0.856,0.103 -1.714,0.202 -2.567,0.313c125.334,16.327 222.126,123.498 222.126,253.282s-96.791,236.956 -222.125,253.283c0.854,0.111 1.71,0.211 2.567,0.313c0.987,0.119 1.977,0.232 2.968,0.34c0.826,0.09 1.652,0.181 2.479,0.262c1.603,0.158 3.209,0.3 4.82,0.428c0.696,0.056 1.395,0.104 2.094,0.153c1.388,0.099 2.779,0.188 4.174,0.264c0.473,0.027 0.945,0.058 1.418,0.081c1.833,0.09 3.672,0.158 5.514,0.209c0.491,0.014 0.982,0.026 1.474,0.037c1.932,0.043 3.868,0.073 5.812,0.073c141.079,0 255.445,-114.367 255.445,-255.445s-114.367,-255.44 -255.446,-255.44z"/>
  <path id="svg_3" fill="#ffffff" d="m222.403,233.787l106.563,-61.152c0,0 116.569,24.829 143.473,-24.263l8.485,-15.483l7.379,16.04c15.321,33.304 23.42,70.329 23.42,107.071c0,84.691 -41.95,163.833 -112.217,211.703l-7.25,4.94l-169.853,-238.856z"/>
  <path id="svg_4" fill="#e5e5e5" d="m511.166,256c0,-44.143 -11.198,-85.671 -30.908,-121.898l-7.82,14.269c-9.45,17.245 -21.888,34.878 -34.284,50.741c4.162,18.295 6.374,37.333 6.374,56.888c0,71.337 -29.248,135.834 -76.4,182.176l23.852,34.666c71.659,-45.244 119.186,-125.83 119.186,-216.842z"/>
  <path id="svg_5" fill="#ffffff" d="m255.722,512c-87.455,0 -168.01,-44.081 -215.484,-117.917l-4.527,-7.04l142.267,-119.937l163.74,230.122l-10.434,3.385c-24.41,7.556 -49.832,11.387 -75.562,11.387z"/>
  <path id="svg_6" fill="#e5e5e5" d="m342.752,496.827l-17.317,-24.795c-30.569,19.333 -65.625,32.915 -103.137,37.801c10.906,1.42 22.13,1.612 33.424,1.612c30.448,0 59.952,-4.845 87.03,-14.618z"/>
  <path id="svg_7" fill="#000000" d="m177.978,267.106l44.425,-33.319l170.805,238.278l-8.302,4.872c-11.729,6.884 -24.073,12.861 -36.69,17.766l-6.499,2.527l-163.739,-230.124z"/>
  <path id="svg_8" fill="#E0E0E3" d="m341.718,497.229c18.2,-6.475 35.457,-14.944 51.49,-25.164l-24.615,-34.338c-13.395,13.232 -28.248,24.992 -44.293,35.023l17.418,24.479z"/>
  <path id="svg_9" fill="#000000" d="m31.37,379.188c-7.01,-12.718 -12.964,-26.113 -17.696,-39.813l-2.112,-8.059l299.691,-208.592l44.425,33.319l-319.966,230.999l-4.342,-7.854z"/>
  <path id="svg_10" fill="#cccccc" d="m382.579,250.216c-15.713,-16.41 -94.094,-100.753 -94.094,-149.704c0,-55.423 45.09,-100.512 100.512,-100.512s100.512,45.089 100.512,100.512c0,48.918 -78.382,133.287 -94.095,149.704l0,0c-3.497,3.654 -9.337,3.655 -12.835,0l0,0z"/>
  <path id="svg_11" fill="#000000" d="m388.997,134.386c-24.803,0 -44.98,-20.178 -44.98,-44.98s20.178,-44.98 44.98,-44.98c24.803,0 44.98,20.178 44.98,44.98s-20.177,44.98 -44.98,44.98z"/>
  <path id="svg_12" fill="#000000" d="m144.659,186.586c29.088,0 52.755,-23.666 52.755,-52.755c0,-4.6 -3.729,-8.33 -8.33,-8.33l-33.319,0c-4.6,0 -8.33,3.729 -8.33,8.33c0,4.6 3.729,8.33 8.33,8.33l24.018,0c-3.769,15.901 -18.088,27.766 -35.125,27.766c-19.902,0 -36.095,-16.193 -36.095,-36.095s16.193,-36.095 36.095,-36.095c8.8,0 17.275,3.202 23.865,9.015c3.452,3.044 8.715,2.713 11.757,-0.736c3.043,-3.45 2.713,-8.714 -0.736,-11.757c-9.636,-8.5 -22.025,-13.181 -34.886,-13.181c-29.088,0 -52.755,23.666 -52.755,52.755s23.667,52.753 52.756,52.753z"/>
 </g>
</svg>